#!OML:ASF F:\VICON\USERDATA\INSTALL\rory3\rory3.ASF
:FULLY-SPECIFIED
:DEGREES
664
root 1.01452 16.7029 21.1029 391.726 27.6816 -355.186
lowerback -19.6852 -6.33835 -0.183822
upperback -19.1636 -7.89476 0.82089
thorax -10.3009 -3.77571 0.162149
lowerneck -3.50125 4.00396 -2.1515
upperneck 15.349 4.87453 5.75343
head 4.9713 2.66095 2.39378
rclavicle 8.95028e-014 4.85035e-014
rhumerus -11.5619 -381.225 -362.69
rradius 18.9486
rwrist 15.0454
rhand 12.7759 1.73945
rfingers 7.12502
rthumb 37.7542 -24.1262
lclavicle 8.95028e-014 4.85035e-014
lhumerus 50.8032 -10.2582 32.9834
lradius 26.784
lwrist -23.4924
lhand 4.41609 21.3849
lfingers 7.12502
lthumb 29.8129 49.0059
rfemur -59.5627 8.90464 375.96
rtibia 40.5363
rfoot 130.198 139.807
rtoes 43.7171
lfemur -15.6031 -3.60879 -20.2133
ltibia 37.1748
lfoot -220.37 -161.208
ltoes 47.3133
665
root 1.04444 16.713 21.1513 391.672 27.9555 -355.47
lowerback -19.555 -6.32042 0.480069
upperback -19.236 -7.95262 0.879027
thorax -10.5499 -3.87905 -0.111518
lowerneck -4.35879 4.26831 -2.6287
upperneck 15.8677 5.18119 6.41619
head 5.22981 2.84147 2.72804
rclavicle 2.88238e-015 1.33186e-014
rhumerus -11.0214 -381.67 -362.504
rradius 19.0825
rwrist 14.6322
rhand 12.5603 1.42685
rfingers 7.12502
rthumb 37.5505 -24.4933
lclavicle 2.88238e-015 1.33186e-014
lhumerus 51.3954 -7.16267 37.4719
lradius 25.8421
lwrist -27.5709
lhand 6.09046 19.2499
lfingers 7.12502
lthumb 31.4095 46.5725
rfemur -59.3436 8.84464 376.343
rtibia 40.5654
rfoot 129.953 139.924
rtoes 43.6098
lfemur -15.5341 -3.88449 -19.6211
ltibia 37.0535
lfoot -219.993 -162.23
ltoes 47.3987
666
root 1.05438 16.7105 21.2131 392.31 27.4185 -355.069
lowerback -19.8699 -6.34526 -0.0174271
upperback -19.7046 -7.91492 0.787438
thorax -10.9291 -3.80124 0.0629266
lowerneck -2.31439 4.37758 -2.09861
upperneck 14.4086 5.38282 5.85482
head 4.45998 2.90109 2.38296
rclavicle 1.14301e-014 6.95746e-015
rhumerus -10.8344 -380.038 -362.282
rradius 19.4822
rwrist 12.811
rhand 12.1181 0.960196
rfingers 7.12502
rthumb 37.1324 -25.0699
lclavicle 1.14301e-014 6.95746e-015
lhumerus 51.8683 -5.41818 40.8822
lradius 25.1869
lwrist -30.533
lhand 5.71604 19.5529
lfingers 7.12502
lthumb 31.0527 46.9443
rfemur -59.7276 9.14404 375.741
rtibia 40.6474
rfoot 129.891 140.048
rtoes 43.5165
lfemur -15.8015 -3.98085 -19.9594
ltibia 36.9032
lfoot -219.769 -163.519
ltoes 47.9547
667
root 1.06745 16.7126 21.2582 392.805 26.9498 -354.881
lowerback -19.8383 -6.30078 -0.0795479
upperback -20.0525 -7.85541 0.723188
thorax -11.398 -3.76444 0.0659171
lowerneck -2.45611 4.51616 -2.15828
upperneck 14.4795 5.54969 6.05665
head 4.49008 2.99443 2.46636
rclavicle 1.60519e-014 5.70512e-014
rhumerus -10.4136 -380.654 -362.153
rradius 19.5378
rwrist 13.024
rhand 11.911 1.29525
rfingers 7.12502
rthumb 36.9365 -24.7856
lclavicle 1.60519e-014 5.70512e-014
lhumerus 52.3706 -5.28278 40.6462
lradius 25.2542
lwrist -29.137
lhand 5.6531 19.9752
lfingers 7.12502
lthumb 30.9927 47.3781
rfemur -60.0627 9.46549 375.321
rtibia 40.6835
rfoot 129.679 140.195
rtoes 43.2812
lfemur -16.1415 -4.07315 -20.1244
ltibia 36.8197
lfoot -219.136 -163.402
ltoes 47.8775
668
root 1.08374 16.7147 21.2927 393.182 26.4462 -354.466
lowerback -19.3611 -6.16722 -0.278231
upperback -20.6016 -7.69151 0.351439
thorax -12.4066 -3.67433 -0.123169
lowerneck -1.81518 4.55168 -2.05189
upperneck 14.5608 5.51745 6.60238
head 4.39337 3.01045 2.5986
rclavicle 5.86415e-015 1.26228e-014
rhumerus -10.6682 -380.823 -361.807
rradius 19.6873
rwrist 13.5068
rhand 11.6693 1.64081
rfingers 7.12502
rthumb 36.7078 -24.4986
lclavicle 5.86415e-015 1.26228e-014
lhumerus 52.5908 -6.93639 38.1559
lradius 26.0702
lwrist -25.6533
lhand 5.60197 20.4333
lfingers 7.12502
lthumb 30.944 47.8455
rfemur -60.1859 9.68054 374.74
rtibia 40.7518
rfoot 129.404 140.443
rtoes 43.1687
lfemur -16.2862 -4.24325 -20.5483
ltibia 36.7126
lfoot -218.004 -161.722
ltoes 46.6816
